<svg xmlns="http://www.w3.org/2000/svg" viewBox="0 0 630.69 630">
        <defs>
            <style>
                .cls-1 {
                    fill: #fff;
                    transition: transform 1s;
                }
            </style>
        </defs>
        <title>Asset 6</title>
        <g id="Layer_2" data-name="Layer 2">
            <g id="Layer_1-2" data-name="Layer 1">
                <path class="cls-1"
                    d="M337.93,630a2.89,2.89,0,0,1-2.78-2.57,2.81,2.81,0,0,1,2.56-3.06H338a2.73,2.73,0,0,1,2.79,2.58,2.82,2.82,0,0,1-2.57,3Z" />
                <path class="cls-1"
                    d="M391.9,621.33a2.86,2.86,0,0,1-2.74-2.09,2.81,2.81,0,0,1,2-3.46l.19,0a3.33,3.33,0,0,1,.59-.06,2.7,2.7,0,0,1,2.67,2.11,2.83,2.83,0,0,1-2,3.45l-.2,0A2.82,2.82,0,0,1,391.9,621.33Z" />
                <path class="cls-1"
                    d="M443.53,603.42a2.86,2.86,0,0,1-2.61-1.62,2.82,2.82,0,0,1,1.36-3.76l.27-.11a2.79,2.79,0,0,1,1-.17,2.7,2.7,0,0,1,2.51,1.65,2.82,2.82,0,0,1-1.37,3.75l-.24.1A2.56,2.56,0,0,1,443.53,603.42Z" />
                <path class="cls-1"
                    d="M491.24,576.81a2.85,2.85,0,0,1-2.36-1.18,2.81,2.81,0,0,1,.69-3.94l.19-.12a2.87,2.87,0,0,1,1.44-.41,2.79,2.79,0,0,1,2.29,1.23,2.7,2.7,0,0,1,.46,2.1,2.73,2.73,0,0,1-1.16,1.83l-.25.16A2.72,2.72,0,0,1,491.24,576.81Z" />
                <path class="cls-1"
                    d="M533.57,542.33a2.81,2.81,0,0,1-2-4.8l.2-.17a2.69,2.69,0,0,1,1.79-.67,2.86,2.86,0,0,1,2.82,2.84,2.82,2.82,0,0,1-.83,2l-.18.16A2.76,2.76,0,0,1,533.57,542.33Z" />
                <path class="cls-1"
                    d="M569.26,501A2.8,2.8,0,0,1,567,496.6l.15-.2a2.78,2.78,0,0,1,2.12-1,2.87,2.87,0,0,1,1.65.54,2.79,2.79,0,0,1,1.15,1.82,2.82,2.82,0,0,1-.47,2.11l-.16.21A2.81,2.81,0,0,1,569.26,501Z" />
                <path class="cls-1"
                    d="M597.25,454.15a2.54,2.54,0,0,1-1.13-.25,2.81,2.81,0,0,1-1.37-3.75,1.53,1.53,0,0,1,.1-.19,2.71,2.71,0,0,1,2.41-1.45,2.89,2.89,0,0,1,1.25.28,2.83,2.83,0,0,1,1.36,3.75l-.12.23A2.84,2.84,0,0,1,597.25,454.15Z" />
                <path class="cls-1"
                    d="M616.71,403.12A2.52,2.52,0,0,1,616,403a2.81,2.81,0,0,1-2-3.46c0-.06,0-.15.08-.24a2.69,2.69,0,0,1,2.59-1.86,3.1,3.1,0,0,1,.79.11,2.83,2.83,0,0,1,2,3.46c0,.07,0,.16-.07.24A2.85,2.85,0,0,1,616.71,403.12Z" />
                <path class="cls-1"
                    d="M627,349.48h-.23a2.81,2.81,0,0,1-2.57-3.06c0-.07,0-.16,0-.24a2.8,2.8,0,0,1,2.74-2.33h.28a2.83,2.83,0,0,1,2.56,3.06c0,.08,0,.16,0,.24A2.85,2.85,0,0,1,627,349.48Z" />
                <path class="cls-1"
                    d="M627.84,294.87a2.82,2.82,0,0,1-2.78-2.58c0-.07,0-.14,0-.22a2.75,2.75,0,0,1,2.58-2.83h.25a2.91,2.91,0,0,1,2.79,2.58c0,.08,0,.17,0,.26a2.89,2.89,0,0,1-2.57,2.78Z" />
                <path class="cls-1"
                    d="M619.18,241a2.78,2.78,0,0,1-1.39-.38,2.73,2.73,0,0,1-1.31-1.72s0-.13,0-.21a2.83,2.83,0,0,1,2.77-3.34,2.83,2.83,0,0,1,2.73,2.1c0,.07,0,.16.05.25a2.89,2.89,0,0,1-2,3.2A3,3,0,0,1,619.18,241Z" />
                <path class="cls-1"
                    d="M601.3,189.35a2.83,2.83,0,0,1-1-.18,2.74,2.74,0,0,1-1.59-1.46,1.63,1.63,0,0,1-.07-.18,2.75,2.75,0,0,1,1.44-3.56,2.67,2.67,0,0,1,1.17-.26,2.85,2.85,0,0,1,2.58,1.63l.1.25a2.89,2.89,0,0,1-1.47,3.48A2.73,2.73,0,0,1,601.3,189.35Z" />
                <path class="cls-1"
                    d="M574.73,141.64a3,3,0,0,1-.51,0,2.74,2.74,0,0,1-1.83-1.17l-.1-.15a2.77,2.77,0,0,1,.8-3.77,2.69,2.69,0,0,1,1.59-.5,2.85,2.85,0,0,1,2.34,1.2l.14.22a2.89,2.89,0,0,1-.83,3.7A2.69,2.69,0,0,1,574.73,141.64Z" />
                <path class="cls-1"
                    d="M540.22,99.5a2.91,2.91,0,0,1-1.78-.75l-.08-.31-.33-.3a1.37,1.37,0,0,0-.14-.18l0,0a2.74,2.74,0,0,1,.37-3.51,2.78,2.78,0,0,1,2-.8,2.81,2.81,0,0,1,2,.83l.17.16a3.08,3.08,0,0,1-.18,3.94,2.78,2.78,0,0,1-2,1Z" />
                <path class="cls-1"
                    d="M498.89,63.54a2.78,2.78,0,0,1-1.6-.52l-.17-.13a2.75,2.75,0,0,1-.51-3.8,2.83,2.83,0,0,1,2.32-1.19,2.79,2.79,0,0,1,1.61.51l.2.15a2.9,2.9,0,0,1,.49,3.76,2.74,2.74,0,0,1-1.83,1.17A2.93,2.93,0,0,1,498.89,63.54Z" />
                <path class="cls-1"
                    d="M452,35.52a2.75,2.75,0,0,1-1.2-.27l-.17-.09a2.77,2.77,0,0,1-1.18-3.66,2.84,2.84,0,0,1,2.57-1.62,2.69,2.69,0,0,1,1.18.26l.23.12a2.9,2.9,0,0,1,1.13,3.62A2.73,2.73,0,0,1,453,35.35,2.8,2.8,0,0,1,452,35.52Z" />
                <path class="cls-1"
                    d="M401,16.07a2.94,2.94,0,0,1-.76-.1l-.17-.05a2.77,2.77,0,0,1-1.82-3.41A2.82,2.82,0,0,1,401,10.43a2.86,2.86,0,0,1,.73.1l.26.08A2.89,2.89,0,0,1,403.72,14a2.73,2.73,0,0,1-1.32,1.72A2.77,2.77,0,0,1,401,16.07Z" />
                <path class="cls-1"
                    d="M347.38,5.77h-.27l-.22,0a2.75,2.75,0,0,1-2.34-3A2.9,2.9,0,0,1,347.36.13h.26l.28,0a2.88,2.88,0,0,1,2.27,3,2.74,2.74,0,0,1-1,1.93A2.69,2.69,0,0,1,347.38,5.77Z" />
                <path class="cls-1"
                    d="M293.49,4.78a5.56,5.56,0,0,0-.7,0c-.62,0-2.67-.16-2.85-2.23A2.34,2.34,0,0,1,290.6.65,2.2,2.2,0,0,1,292.31,0h.44a2.53,2.53,0,0,1,2.79,2.22,2.35,2.35,0,0,1-.64,1.9,2.3,2.3,0,0,1-1.34.71Z" />
                <path class="cls-1"
                    d="M238.76,13.63a2.69,2.69,0,0,1-2.66-2.1,2.78,2.78,0,0,1,.28-2.13,2.81,2.81,0,0,1,1.72-1.32l.26-.06a2.54,2.54,0,0,1,.43,0,2.87,2.87,0,0,1,2.74,2.08,2.81,2.81,0,0,1-2,3.46l-.21,0A3.3,3.3,0,0,1,238.76,13.63Z" />
                <path class="cls-1"
                    d="M187.17,31.54a2.7,2.7,0,0,1-2.5-1.65,2.78,2.78,0,0,1-.09-2.15,2.82,2.82,0,0,1,1.46-1.6l.26-.11a2.52,2.52,0,0,1,.87-.15,2.86,2.86,0,0,1,2.6,1.61,2.82,2.82,0,0,1-1.36,3.76l-.16.07A3.06,3.06,0,0,1,187.17,31.54Z" />
                <path class="cls-1"
                    d="M139.49,58.14a2.82,2.82,0,0,1-2.29-1.23,2.71,2.71,0,0,1-.46-2.09A2.74,2.74,0,0,1,137.9,53l.25-.16a2.63,2.63,0,0,1,1.31-.33,2.86,2.86,0,0,1,2.36,1.18,2.82,2.82,0,0,1-.69,3.94l-.16.1A2.93,2.93,0,0,1,139.49,58.14Z" />
                <path class="cls-1"
                    d="M97.15,92.62a2.75,2.75,0,0,1-2-.86,2.83,2.83,0,0,1,0-4l.21-.19A2.8,2.8,0,0,1,97.13,87a2.8,2.8,0,0,1,2,4.79L99,91.9A2.76,2.76,0,0,1,97.15,92.62Z" />
                <path class="cls-1"
                    d="M61.44,133.92a2.87,2.87,0,0,1-1.65-.54,2.82,2.82,0,0,1-.69-3.93l.17-.22a2.8,2.8,0,0,1,2.16-1,2.8,2.8,0,0,1,2.28,4.42l-.1.14A2.83,2.83,0,0,1,61.44,133.92Z" />
                <path class="cls-1"
                    d="M33.44,180.8a2.85,2.85,0,0,1-1.24-.28,2.83,2.83,0,0,1-1.36-3.75c0-.08.08-.16.12-.24a2.85,2.85,0,0,1,2.48-1.37,2.57,2.57,0,0,1,1.13.25,2.82,2.82,0,0,1,1.37,3.76l-.07.14A2.76,2.76,0,0,1,33.44,180.8Z" />
                <path class="cls-1"
                    d="M14,231.83a3,3,0,0,1-.79-.11,2.83,2.83,0,0,1-2-3.46c0-.08,0-.18.08-.27A2.83,2.83,0,0,1,14,226.19a2.6,2.6,0,0,1,.68.09,2.81,2.81,0,0,1,2,3.46s0,.1,0,.15A2.74,2.74,0,0,1,14,231.83Z" />
                <path class="cls-1"
                    d="M3.68,285.46H3.4a2.79,2.79,0,0,1-1.91-1,2.82,2.82,0,0,1-.65-2.06c0-.08,0-.17,0-.26a2.84,2.84,0,0,1,2.78-2.3h.24a2.72,2.72,0,0,1,1.91,1,2.75,2.75,0,0,1,.65,2.07s0,.11,0,.19A2.82,2.82,0,0,1,3.68,285.46Z" />
                <path class="cls-1"
                    d="M2.81,340.07A2.91,2.91,0,0,1,0,337.49c0-.08,0-.18,0-.28a2.88,2.88,0,0,1,2.57-2.77h.29a2.74,2.74,0,0,1,1.78.66,2.74,2.74,0,0,1,1,1.92s0,.11,0,.18a2.77,2.77,0,0,1-2.58,2.86Z" />
                <path class="cls-1"
                    d="M11.5,394a2.83,2.83,0,0,1-2.73-2.1c0-.08,0-.18-.06-.28a2.89,2.89,0,0,1,2.05-3.17,2.93,2.93,0,0,1,.76-.11,2.79,2.79,0,0,1,1.39.38,2.74,2.74,0,0,1,1.31,1.72s0,.11,0,.18A2.83,2.83,0,0,1,11.5,394Z" />
                <path class="cls-1"
                    d="M29.42,445.6A2.85,2.85,0,0,1,26.84,444c0-.08-.08-.17-.11-.26a2.88,2.88,0,0,1,1.47-3.48,2.72,2.72,0,0,1,1.19-.28,2.82,2.82,0,0,1,1,.18A2.74,2.74,0,0,1,32,441.6l.07.16a2.77,2.77,0,0,1-1.44,3.58A2.69,2.69,0,0,1,29.42,445.6Z" />
                <path class="cls-1"
                    d="M56,493.31a2.84,2.84,0,0,1-2.33-1.2l-.15-.23a2.88,2.88,0,0,1,.84-3.68,2.69,2.69,0,0,1,1.59-.52,2.59,2.59,0,0,1,.5,0,2.75,2.75,0,0,1,1.85,1.16l.09.14a2.77,2.77,0,0,1-.79,3.79A2.74,2.74,0,0,1,56,493.31Z" />
                <path class="cls-1"
                    d="M90.47,535.67a2.73,2.73,0,0,1-2-.82l-.2-.21a2.88,2.88,0,0,1,.2-3.77,2.82,2.82,0,0,1,4,0l.13.14a2.76,2.76,0,0,1-.14,3.84A2.7,2.7,0,0,1,90.47,535.67Z" />
                <path class="cls-1"
                    d="M131.76,571.4a2.79,2.79,0,0,1-1.6-.51l-.25-.19a2.87,2.87,0,0,1-.45-3.73,2.73,2.73,0,0,1,1.82-1.16,2.83,2.83,0,0,1,.52,0,2.79,2.79,0,0,1,1.6.52l.13.1a2.77,2.77,0,0,1,.54,3.82A2.82,2.82,0,0,1,131.76,571.4Z" />
                <path class="cls-1"
                    d="M178.64,599.43a2.71,2.71,0,0,1-1.18-.27l-.26-.14a2.87,2.87,0,0,1-1.1-3.6,2.71,2.71,0,0,1,1.59-1.46,2.81,2.81,0,0,1,1-.18,2.77,2.77,0,0,1,1.2.27l.15.08a2.77,2.77,0,0,1,1.2,3.67A2.83,2.83,0,0,1,178.64,599.43Z" />
                <path class="cls-1"
                    d="M229.69,618.88a2.76,2.76,0,0,1-.72-.1l-.28-.08a2.9,2.9,0,0,1-1.72-3.36,2.72,2.72,0,0,1,1.31-1.71,2.77,2.77,0,0,1,1.39-.39,2.89,2.89,0,0,1,.75.1l.19.06a2.76,2.76,0,0,1,1.8,3.4A2.82,2.82,0,0,1,229.69,618.88Z" />
                <path class="cls-1"
                    d="M283.34,629.17h-.23l-.27,0a2.89,2.89,0,0,1-2.31-3,2.82,2.82,0,0,1,2.79-2.58h.24l.22,0a2.76,2.76,0,0,1,2.36,3A2.9,2.9,0,0,1,283.34,629.17Z" />
            </g>
        </g>
</svg>