<svg xmlns="http://www.w3.org/2000/svg" viewBox="0 0 600.26 600.29">
        <defs>
            <style>
                .cls-1 {
                    fill: #fff;
                    transition: transform 1s;
                }
            </style>
        </defs>
        <title>Asset 5</title>
        <g id="Layer_2" data-name="Layer 2">
            <g id="Layer_1-2" data-name="Layer 1">
                <path class="cls-1"
                    d="M321.54,591.62l-.4,0a4.32,4.32,0,0,0-3.93,4.7,4.4,4.4,0,0,0,4.29,3.95l.39,0a4.34,4.34,0,0,0,3.94-4.69A4.25,4.25,0,0,0,321.54,591.62Z" />
                <path class="cls-1"
                    d="M372.62,583.41a4.55,4.55,0,0,0-.81.08l-.36.08a4.33,4.33,0,0,0-3.06,5.31,4.4,4.4,0,0,0,4.2,3.21,4.12,4.12,0,0,0,.75-.07l.35-.08a4.34,4.34,0,0,0,3.07-5.3A4.21,4.21,0,0,0,372.62,583.41Z" />
                <path class="cls-1"
                    d="M421.44,566.45a4.33,4.33,0,0,0-1.48.26l-.39.16a4.33,4.33,0,0,0-2.09,5.76,4.37,4.37,0,0,0,4,2.49,4.16,4.16,0,0,0,1.42-.25l.35-.15a4.34,4.34,0,0,0,2.1-5.75A4.22,4.22,0,0,0,421.44,566.45Z" />
                <path class="cls-1"
                    d="M466.58,541.28a4.39,4.39,0,0,0-2.18.6l-.32.2a4.33,4.33,0,0,0-1.07,6,4.36,4.36,0,0,0,3.59,1.83,4.22,4.22,0,0,0,2.08-.54l.35-.22a4.35,4.35,0,0,0-2.46-7.91Z" />
                <path class="cls-1"
                    d="M506.65,508.65a4.22,4.22,0,0,0-2.77,1l-.29.26a4.33,4.33,0,0,0,5.84,6.39l.28-.26a4.36,4.36,0,0,0-3.06-7.42Z" />
                <path class="cls-1"
                    d="M543,470.37a4.38,4.38,0,0,0-2.52-.81,4.3,4.3,0,0,0-3.29,1.56l-.23.3a4.31,4.31,0,0,0,3.52,6.8,4.32,4.32,0,0,0,3.34-1.52l.23-.3a4.33,4.33,0,0,0-1.05-6Z" />
                <path class="cls-1"
                    d="M568.82,425.61a4.38,4.38,0,0,0-1.87-.42,4.21,4.21,0,0,0-3.71,2.19,3.21,3.21,0,0,0-.17.32,4.33,4.33,0,0,0,2.1,5.76,4.12,4.12,0,0,0,1.78.39,4.35,4.35,0,0,0,3.78-2.11c.07-.12.14-.25.19-.36A4.34,4.34,0,0,0,568.82,425.61Z" />
                <path class="cls-1"
                    d="M586.53,377a4.47,4.47,0,0,0-1.18-.16,4.2,4.2,0,0,0-4,2.86c-.05.14-.09.28-.11.35a4.33,4.33,0,0,0,3.07,5.31,4.08,4.08,0,0,0,1.08.14,4.36,4.36,0,0,0,4.1-2.83c0-.13.09-.27.11-.37A4.34,4.34,0,0,0,586.53,377Z" />
                <path class="cls-1"
                    d="M595.53,326.14l-.41,0a4.3,4.3,0,0,0-4.23,3.58c0,.14,0,.28,0,.37a4.32,4.32,0,0,0,3.94,4.7l.36,0a4.38,4.38,0,0,0,4.27-3.58,3.45,3.45,0,0,0,0-.37,4.33,4.33,0,0,0-3.93-4.7Z" />
                <path class="cls-1"
                    d="M591.61,279.14a4.33,4.33,0,0,0,4.28,4l.42,0a4.39,4.39,0,0,0,3.95-4.29c0-.13,0-.27,0-.39a4.41,4.41,0,0,0-4.3-4l-.39,0a4.26,4.26,0,0,0-4,4.31C591.6,278.88,591.6,279,591.61,279.14Z" />
                <path class="cls-1"
                    d="M583.53,228.84a4.35,4.35,0,0,0,4.16,3.22,4.44,4.44,0,0,0,1.15-.16A4.4,4.4,0,0,0,592,227c0-.14-.05-.27-.08-.38a4.35,4.35,0,0,0-4.19-3.22,4.34,4.34,0,0,0-4.26,5.12C583.48,228.64,583.51,228.76,583.53,228.84Z" />
                <path class="cls-1"
                    d="M574.7,177.07a4.37,4.37,0,0,0-3.95-2.51,4.16,4.16,0,0,0-1.81.4,4.26,4.26,0,0,0-2.24,5.41c0,.13.11.27.14.33a4.26,4.26,0,0,0,2.45,2.24,4.33,4.33,0,0,0,1.49.27,4.26,4.26,0,0,0,1.83-.42,4.4,4.4,0,0,0,2.24-5.38C574.81,177.3,574.75,177.18,574.7,177.07Z" />
                <path class="cls-1"
                    d="M549.15,131.26a4.36,4.36,0,0,0-3.57-1.85,4.22,4.22,0,0,0-2.46.78,4.28,4.28,0,0,0-1.25,5.75c.06.11.13.21.18.28a4.25,4.25,0,0,0,2.8,1.79,4.43,4.43,0,0,0,.78.07,4.21,4.21,0,0,0,2.46-.79,4.4,4.4,0,0,0,1.27-5.7C549.29,131.46,549.22,131.35,549.15,131.26Z" />
                <path class="cls-1"
                    d="M516,90.57a4.36,4.36,0,0,0-6.12,0,4.24,4.24,0,0,0-.55,5.42l.13.16.11.1.12.13.2.33a3.79,3.79,0,0,0,3,1.21h0A3.79,3.79,0,0,0,516,96.65a4.26,4.26,0,0,0,.25-5.74C516.21,90.8,516.11,90.64,516,90.57Z" />
                <path class="cls-1"
                    d="M476.37,56.27a4.33,4.33,0,0,0-5.28,6.86l.3.23a4.29,4.29,0,0,0,2.46.79,4.43,4.43,0,0,0,.78-.07,4.25,4.25,0,0,0,2.8-1.79,4.4,4.4,0,0,0-.75-5.79Z" />
                <path class="cls-1"
                    d="M431.68,29.55l-.34-.18a4.21,4.21,0,0,0-1.82-.41,4.35,4.35,0,0,0-3.94,2.49,4.28,4.28,0,0,0,1.79,5.6l.3.15a4.33,4.33,0,0,0,5.76-2.1A4.4,4.4,0,0,0,431.68,29.55Z" />
                <path class="cls-1"
                    d="M382.71,10.82l-.39-.12A4.33,4.33,0,0,0,377,13.76,4.29,4.29,0,0,0,379.77,19l.31.1a4.43,4.43,0,0,0,1.15.15A4.34,4.34,0,0,0,385.38,16,4.39,4.39,0,0,0,382.71,10.82Z" />
                <path class="cls-1"
                    d="M331.21.88l-.4-.05-.39,0a4.41,4.41,0,0,0-4.31,3.95,4.27,4.27,0,0,0,3.58,4.65l.35,0,.4,0a4.2,4.2,0,0,0,2.77-1,4.25,4.25,0,0,0,1.53-2.95A4.39,4.39,0,0,0,331.21.88Z" />
                <path class="cls-1"
                    d="M278.75,0h-.49a4.33,4.33,0,0,0-3.84,4.63,4.18,4.18,0,0,0,4.35,3.86,3.82,3.82,0,0,1,.46,0l.17,0,.17,0a4,4,0,0,0,2.47-1.37A4.26,4.26,0,0,0,283,4,4.35,4.35,0,0,0,278.75,0Z" />
                <path class="cls-1"
                    d="M227.68,8.24a4.16,4.16,0,0,0-.7.06l-.4.09a4.33,4.33,0,0,0-3.07,5.3,4.2,4.2,0,0,0,4.12,3.22,4.67,4.67,0,0,0,.82-.08l.35-.08a4.32,4.32,0,0,0,3.06-5.31A4.4,4.4,0,0,0,227.68,8.24Z" />
                <path class="cls-1"
                    d="M178.81,25.19a4,4,0,0,0-1.39.24l-.38.16a4.34,4.34,0,0,0-2.1,5.75,4.21,4.21,0,0,0,3.88,2.52,4.52,4.52,0,0,0,1.57-.29l.31-.13a4.33,4.33,0,0,0,2.09-5.76A4.37,4.37,0,0,0,178.81,25.19Z" />
                <path class="cls-1"
                    d="M133.65,50.37a4.17,4.17,0,0,0-2.09.55l-.34.22a4.34,4.34,0,0,0-1.07,6A4.33,4.33,0,0,0,133.68,59a4.4,4.4,0,0,0,2.22-.62l.29-.18a4.33,4.33,0,0,0,1.06-6A4.36,4.36,0,0,0,133.65,50.37Z" />
                <path class="cls-1"
                    d="M93.59,83a4.3,4.3,0,0,0-2.73,1l-.31.28a4.33,4.33,0,0,0,5.86,6.36l.25-.23A4.31,4.31,0,0,0,93.59,83Z" />
                <path class="cls-1"
                    d="M62.26,122.86a4.24,4.24,0,0,0-2.45-.76,4.3,4.3,0,0,0-3.32,1.5c-.09.11-.17.22-.25.32a4.34,4.34,0,0,0,1.06,6,4.37,4.37,0,0,0,2.51.81,4.3,4.3,0,0,0,3.32-1.61c.07-.09.14-.18.2-.26a4.33,4.33,0,0,0-1.07-6Z" />
                <path class="cls-1"
                    d="M35.09,166.86a4.09,4.09,0,0,0-1.77-.39,4.36,4.36,0,0,0-3.79,2.13c-.07.12-.13.25-.18.35a4.34,4.34,0,0,0,2.09,5.76,4.37,4.37,0,0,0,1.88.42A4.25,4.25,0,0,0,37,172.91a3,3,0,0,0,.15-.29,4.33,4.33,0,0,0-2.1-5.76Z" />
                <path class="cls-1"
                    d="M16,214.91a4.12,4.12,0,0,0-1.07-.14,4.34,4.34,0,0,0-4.1,2.81c0,.13-.09.27-.12.39a4.34,4.34,0,0,0,3.05,5.3,4.52,4.52,0,0,0,1.18.16,4.24,4.24,0,0,0,4-2.9c0-.1.07-.2.1-.31A4.33,4.33,0,0,0,16,214.91Z" />
                <path class="cls-1"
                    d="M4.73,274.17l.41,0a4.33,4.33,0,0,0,4.24-3.62c0-.12,0-.25,0-.33a4.33,4.33,0,0,0-3.94-4.7l-.37,0a4.37,4.37,0,0,0-4.27,3.56c0,.13,0,.27,0,.39a4.33,4.33,0,0,0,3.93,4.69Z" />
                <path class="cls-1"
                    d="M8.65,321.18a4.33,4.33,0,0,0-4.28-4l-.41,0A4.38,4.38,0,0,0,0,321.51c0,.14,0,.28,0,.41a4.41,4.41,0,0,0,4.3,4l.39,0a4.29,4.29,0,0,0,4-4.36C8.66,321.38,8.65,321.26,8.65,321.18Z" />
                <path class="cls-1"
                    d="M16.73,371.48a4.25,4.25,0,0,0-2-2.63,4.29,4.29,0,0,0-2.14-.59,4.53,4.53,0,0,0-1.15.16,4.4,4.4,0,0,0-3.15,4.91c0,.14.06.27.09.39a4.32,4.32,0,0,0,5.3,3.07,4.28,4.28,0,0,0,3.14-5C16.78,371.68,16.75,371.56,16.73,371.48Z" />
                <path class="cls-1"
                    d="M33.42,419.61A4.26,4.26,0,0,0,31,417.36a4.38,4.38,0,0,0-1.49-.27,4.24,4.24,0,0,0-1.83.42,4.39,4.39,0,0,0-2.25,5.37c0,.13.1.25.16.37a4.36,4.36,0,0,0,3.94,2.5,4.19,4.19,0,0,0,1.81-.4,4.29,4.29,0,0,0,2.22-5.46C33.5,419.79,33.46,419.69,33.42,419.61Z" />
                <path class="cls-1"
                    d="M58.21,464.1a4.26,4.26,0,0,0-2.81-1.78,4.38,4.38,0,0,0-.77-.07,4.2,4.2,0,0,0-2.46.79,4.39,4.39,0,0,0-1.28,5.69c.06.1.12.2.22.33a4.35,4.35,0,0,0,3.57,1.85,4.33,4.33,0,0,0,3.71-6.53A3.22,3.22,0,0,0,58.21,464.1Z" />
                <path class="cls-1"
                    d="M90.35,503.62a4.33,4.33,0,0,0-6.13,0,4.38,4.38,0,0,0-.28,5.81l.28.3a4.33,4.33,0,0,0,6.37-5.85Z" />
                <path class="cls-1"
                    d="M128.87,537a4.27,4.27,0,0,0-2.46-.79,4.41,4.41,0,0,0-.78.07,4.24,4.24,0,0,0-2.79,1.78,4.38,4.38,0,0,0,.72,5.76l.34.26a4.33,4.33,0,0,0,5.23-6.89Z" />
                <path class="cls-1"
                    d="M172.89,563.26l-.29-.16a4.26,4.26,0,0,0-1.84-.42,4.32,4.32,0,0,0-1.49.27,4.23,4.23,0,0,0-2.44,2.24,4.37,4.37,0,0,0,1.71,5.54l.39.2a4.23,4.23,0,0,0,1.81.4,4.35,4.35,0,0,0,3.94-2.49A4.27,4.27,0,0,0,172.89,563.26Z" />
                <path class="cls-1"
                    d="M220.52,581.36l-.33-.11a4.43,4.43,0,0,0-1.14-.15,4.3,4.3,0,0,0-2.14.59,4.24,4.24,0,0,0-2,2.63,4.4,4.4,0,0,0,2.69,5.19l.37.11a4.33,4.33,0,0,0,5.3-3.06A4.28,4.28,0,0,0,220.52,581.36Z" />
                <path class="cls-1"
                    d="M270.56,590.91l-.34,0-.4,0a4.34,4.34,0,0,0-4.3,4,4.4,4.4,0,0,0,3.53,4.63l.41.05h.37a4.4,4.4,0,0,0,4.31-3.94A4.28,4.28,0,0,0,270.56,590.91Z" />
            </g>
        </g>
</svg>