<svg xmlns="http://www.w3.org/2000/svg" viewBox="0 0 557.94 557.91">
        <defs>
            <style>
                .cls-1 {
                    fill: #fff;
                    transition: transform 1s;
                }
            </style>
        </defs>
        <title>Asset 4</title>
        <g id="Layer_2" data-name="Layer 2">
            <g id="Layer_1-2" data-name="Layer 1">
                <path class="cls-1"
                    d="M298.65,557.91a6.62,6.62,0,0,1-6.55-6,6.59,6.59,0,0,1,6-7.14l.59,0a6.59,6.59,0,0,1,.55,13.16Z" />
                <path class="cls-1"
                    d="M345.69,550.35a6.69,6.69,0,0,1-6.38-4.88,6.59,6.59,0,0,1,4.66-8.08l.56-.12a6.94,6.94,0,0,1,1.19-.11,6.5,6.5,0,0,1,6.31,4.9,6.6,6.6,0,0,1-4.66,8.07l-.57.13A6.54,6.54,0,0,1,345.69,550.35Z" />
                <path class="cls-1"
                    d="M390.69,534.73a6.64,6.64,0,0,1-6-3.8,6.59,6.59,0,0,1,3.19-8.76l.56-.23a6.7,6.7,0,0,1,2.27-.4,6.51,6.51,0,0,1,5.93,3.82,6.6,6.6,0,0,1-3.19,8.76c-.17.08-.35.16-.54.22A6.35,6.35,0,0,1,390.69,534.73Z" />
                <path class="cls-1"
                    d="M432.27,511.55a6.62,6.62,0,0,1-5.44-2.8,6.58,6.58,0,0,1,1.62-9.18l.48-.31a6.62,6.62,0,0,1,3.31-.9,6.61,6.61,0,0,1,3.76,12c-.16.11-.33.22-.51.32A6.45,6.45,0,0,1,432.27,511.55Z" />
                <path class="cls-1"
                    d="M469.16,481.5a6.58,6.58,0,0,1-4.68-11.24c.13-.13.28-.27.43-.4a6.53,6.53,0,0,1,8.88.4,6.6,6.6,0,0,1,0,9.32c-.13.13-.28.27-.43.4A6.54,6.54,0,0,1,469.16,481.5Z" />
                <path class="cls-1"
                    d="M500.26,445.5a6.58,6.58,0,0,1-5.38-10.35c.11-.15.23-.31.36-.47a6.54,6.54,0,0,1,5-2.36,6.62,6.62,0,0,1,5.42,10.4c-.11.16-.23.32-.36.46A6.57,6.57,0,0,1,500.26,445.5Z" />
                <path class="cls-1"
                    d="M524.66,404.64a6.44,6.44,0,0,1-2.74-.6,6.59,6.59,0,0,1-3.19-8.76c.07-.16.16-.33.26-.51a6.49,6.49,0,0,1,5.67-3.31,6.67,6.67,0,0,1,2.83.63,6.6,6.6,0,0,1,3.18,8.76c-.08.17-.18.35-.28.53A6.62,6.62,0,0,1,524.66,404.64Z" />
                <path class="cls-1"
                    d="M541.63,360.17a6.4,6.4,0,0,1-1.67-.22,6.59,6.59,0,0,1-4.67-8.07c0-.18.11-.37.18-.56a6.49,6.49,0,0,1,6.14-4.33,6.78,6.78,0,0,1,1.76.23,6.6,6.6,0,0,1,4.65,8.08c0,.18-.11.37-.17.56A6.62,6.62,0,0,1,541.63,360.17Z" />
                <path class="cls-1"
                    d="M550.62,313.42l-.56,0a6.59,6.59,0,0,1-6-7.14c0-.19,0-.38.08-.58a6.56,6.56,0,0,1,6.46-5.44l.61,0a6.6,6.6,0,0,1,6,7.14c0,.19,0,.38-.08.57A6.66,6.66,0,0,1,550.62,313.42Z" />
                <path class="cls-1"
                    d="M551.32,265.83a6.48,6.48,0,0,1-4.21-1.54,6.56,6.56,0,0,1-2.33-4.48c0-.18,0-.38,0-.58a6.55,6.55,0,0,1,6-6.56l.58,0a6.64,6.64,0,0,1,6.55,6c0,.18,0,.38,0,.59a6.62,6.62,0,0,1-6,6.54Z" />
                <path class="cls-1"
                    d="M543.77,218.83a6.6,6.6,0,0,1-6.35-4.89c0-.17-.09-.36-.12-.55a6.59,6.59,0,0,1,12.86-2.86c.05.18.09.38.13.57a6.61,6.61,0,0,1-6.52,7.73Z" />
                <path class="cls-1"
                    d="M528.19,173.86a6.62,6.62,0,0,1-6-3.81c-.07-.16-.15-.34-.22-.52a6.55,6.55,0,0,1,3.41-8.23,6.48,6.48,0,0,1,2.76-.62,6.63,6.63,0,0,1,6,3.81c.08.18.16.36.23.55a6.62,6.62,0,0,1-3.41,8.2A6.51,6.51,0,0,1,528.19,173.86Z" />
                <path class="cls-1"
                    d="M505,132.28a6.75,6.75,0,0,1-1.17-.1,6.55,6.55,0,0,1-4.26-2.71c-.1-.14-.2-.3-.3-.47A6.59,6.59,0,0,1,505,119.1a6.62,6.62,0,0,1,5.42,2.81c.11.15.22.32.32.49a6.62,6.62,0,0,1-1.94,8.68A6.51,6.51,0,0,1,505,132.28Z" />
                <path class="cls-1"
                    d="M475,95.39a6.58,6.58,0,0,1-4.66-2c-.13-.13-.26-.28-.38-.42a6.59,6.59,0,0,1,9.71-8.9c.14.14.27.28.4.43a6.64,6.64,0,0,1-.4,8.9,6.56,6.56,0,0,1-4.66,2Z" />
                <path class="cls-1"
                    d="M438.94,64.21a6.54,6.54,0,0,1-3.76-1.2c-.15-.11-.31-.23-.46-.35a6.59,6.59,0,0,1,8-10.44c.15.11.31.23.46.35a6.62,6.62,0,0,1,1.15,8.82,6.54,6.54,0,0,1-4.25,2.72A6.7,6.7,0,0,1,438.94,64.21Z" />
                <path class="cls-1"
                    d="M398.1,39.79a6.55,6.55,0,0,1-2.78-.62l-.5-.26a6.59,6.59,0,0,1,6.07-11.69l.52.27A6.62,6.62,0,0,1,404.08,36a6.62,6.62,0,0,1-6,3.81Z" />
                <path class="cls-1"
                    d="M353.64,22.84a6.69,6.69,0,0,1-1.73-.23l-.53-.17a6.59,6.59,0,0,1,2.25-12.79,6.63,6.63,0,0,1,1.7.23l.57.18A6.61,6.61,0,0,1,360,17.95a6.6,6.6,0,0,1-6.34,4.89Z" />
                <path class="cls-1"
                    d="M306.89,13.87l-.59,0-.56-.08a6.55,6.55,0,0,1-5.43-7.07,6.63,6.63,0,0,1,6.56-6l.58,0,.59.08a6.61,6.61,0,0,1,5.39,7.06,6.54,6.54,0,0,1-2.33,4.48A6.47,6.47,0,0,1,306.89,13.87Z" />
                <path class="cls-1"
                    d="M259.28,13.45A6.71,6.71,0,0,1,258.7.06c.19,0,.39-.06.59-.06a6.6,6.6,0,0,1,6.54,6,6.51,6.51,0,0,1-1.51,4.81,6.73,6.73,0,0,1-4.48,2.48c-.17,0-.35.17-.53.17Z" />
                <path class="cls-1"
                    d="M212.22,20.71a6.49,6.49,0,0,1-6.31-4.9,6.6,6.6,0,0,1,4.66-8.07l.58-.13a6.4,6.4,0,0,1,1.1-.1,6.69,6.69,0,0,1,6.38,4.88A6.59,6.59,0,0,1,214,20.48l-.55.12A6.9,6.9,0,0,1,212.22,20.71Z" />
                <path class="cls-1"
                    d="M167.26,36.33a6.51,6.51,0,0,1-5.93-3.83,6.6,6.6,0,0,1,3.19-8.76l.56-.23a6.36,6.36,0,0,1,2.18-.38,6.64,6.64,0,0,1,6,3.8,6.59,6.59,0,0,1-3.19,8.76c-.16.07-.34.15-.51.21A6.7,6.7,0,0,1,167.26,36.33Z" />
                <path class="cls-1"
                    d="M125.7,59.51a6.61,6.61,0,0,1-3.76-12c.16-.11.33-.22.51-.32a6.46,6.46,0,0,1,3.22-.85,6.62,6.62,0,0,1,5.44,2.8,6.59,6.59,0,0,1-1.62,9.18c-.15.1-.31.2-.47.3A6.64,6.64,0,0,1,125.7,59.51Z" />
                <path class="cls-1"
                    d="M88.8,89.56a6.61,6.61,0,0,1-4.66-11.28c.14-.14.29-.28.44-.41a6.59,6.59,0,0,1,8.87,9.74c-.12.12-.27.25-.41.38A6.52,6.52,0,0,1,88.8,89.56Z" />
                <path class="cls-1"
                    d="M57.68,125.55a6.62,6.62,0,0,1-5.42-10.39c.11-.16.23-.32.36-.47a6.57,6.57,0,0,1,5.06-2.32,6.58,6.58,0,0,1,5.38,10.36c-.1.14-.22.3-.34.44A6.56,6.56,0,0,1,57.68,125.55Z" />
                <path class="cls-1"
                    d="M33.28,166.41a6.66,6.66,0,0,1-2.83-.64A6.6,6.6,0,0,1,27.27,157c.08-.18.17-.36.27-.53a6.63,6.63,0,0,1,5.74-3.26,6.42,6.42,0,0,1,2.74.6,6.59,6.59,0,0,1,3.19,8.76c-.07.16-.16.32-.25.49A6.5,6.5,0,0,1,33.28,166.41Z" />
                <path class="cls-1"
                    d="M16.33,210.88a6.8,6.8,0,0,1-1.76-.23,6.6,6.6,0,0,1-4.66-8.07c.05-.19.11-.38.18-.57a6.62,6.62,0,0,1,6.22-4.31,6.39,6.39,0,0,1,1.67.22A6.59,6.59,0,0,1,22.65,206c0,.16-.1.34-.17.52A6.5,6.5,0,0,1,16.33,210.88Z" />
                <path class="cls-1"
                    d="M7.34,257.62l-.61,0a6.6,6.6,0,0,1-6-7.14c0-.19,0-.39.08-.59a6.65,6.65,0,0,1,6.49-5.42l.57,0a6.59,6.59,0,0,1,6,7.14c0,.17,0,.36-.07.55A6.56,6.56,0,0,1,7.34,257.62Z" />
                <path class="cls-1"
                    d="M6.58,305.22a6.63,6.63,0,0,1-6.55-6c0-.19,0-.4,0-.6a6.62,6.62,0,0,1,6-6.54l.61,0a6.47,6.47,0,0,1,4.21,1.54,6.55,6.55,0,0,1,2.33,4.48c0,.17,0,.36,0,.55a6.55,6.55,0,0,1-6,6.58Z" />
                <path class="cls-1"
                    d="M14.15,352.22a6.6,6.6,0,0,1-6.37-4.89c-.05-.19-.1-.39-.13-.59a6.59,6.59,0,0,1,9.79-6.82,6.54,6.54,0,0,1,3.07,4c0,.16.09.35.12.54a6.6,6.6,0,0,1-6.49,7.75Z" />
                <path class="cls-1"
                    d="M29.77,397.19a6.63,6.63,0,0,1-6-3.81c-.08-.18-.16-.37-.23-.55a6.62,6.62,0,0,1,3.42-8.2,6.5,6.5,0,0,1,2.78-.63,6.62,6.62,0,0,1,6,3.82c.07.15.15.33.21.51a6.56,6.56,0,0,1-3.4,8.25A6.49,6.49,0,0,1,29.77,397.19Z" />
                <path class="cls-1"
                    d="M53,438.77A6.61,6.61,0,0,1,47.54,436c-.12-.17-.23-.33-.32-.5a6.62,6.62,0,0,1,1.94-8.67,6.48,6.48,0,0,1,3.75-1.2,6.75,6.75,0,0,1,1.17.1,6.55,6.55,0,0,1,4.26,2.71c.1.14.2.3.3.47A6.59,6.59,0,0,1,53,438.77Z" />
                <path class="cls-1"
                    d="M83,475.69a6.55,6.55,0,0,1-4.66-1.93c-.14-.14-.28-.29-.41-.44a6.62,6.62,0,0,1,.41-8.87,6.59,6.59,0,0,1,9.32,0c.12.13.26.27.38.42a6.58,6.58,0,0,1-5,10.82Z" />
                <path class="cls-1"
                    d="M119,506.83a6.53,6.53,0,0,1-3.77-1.19c-.17-.12-.33-.24-.48-.37a6.61,6.61,0,0,1-1.13-8.8,6.52,6.52,0,0,1,4.25-2.71,6.51,6.51,0,0,1,4.93,1.09c.14.1.29.21.44.34A6.59,6.59,0,0,1,119,506.83Z" />
                <path class="cls-1"
                    d="M159.83,531.26a6.52,6.52,0,0,1-2.77-.62l-.54-.28a6.62,6.62,0,0,1-2.64-8.47,6.58,6.58,0,0,1,8.76-3.19c.15.07.32.16.49.26a6.55,6.55,0,0,1,2.69,8.5A6.62,6.62,0,0,1,159.83,531.26Z" />
                <path class="cls-1"
                    d="M204.32,548.21a6.54,6.54,0,0,1-1.7-.23l-.57-.18a6.62,6.62,0,0,1-4.09-7.89A6.6,6.6,0,0,1,204.3,535a6.69,6.69,0,0,1,1.73.23l.53.17a6.59,6.59,0,0,1-2.25,12.79Z" />
                <path class="cls-1"
                    d="M251.08,557.18l-.58,0-.59-.08a6.62,6.62,0,0,1-5.4-7.06,6.6,6.6,0,0,1,6.55-6l.59,0,.55.07a6.55,6.55,0,0,1,5.44,7.07A6.63,6.63,0,0,1,251.08,557.18Z" />
            </g>
        </g>
    </svg>