<svg xmlns="http://www.w3.org/2000/svg" viewBox="0 0 507.3 507.3">
        <defs>
            <style>
                .cls-1 {
                    fill: #fff;
                    transition: transform 1s;
                }
            </style>
        </defs>
        <title>Asset 3</title>
        <g id="Layer_2" data-name="Layer 2">
            <g id="Layer_1-2" data-name="Layer 1">
                <path class="cls-1"
                    d="M271.29,507.3a9.54,9.54,0,0,1-9.44-8.67,9.49,9.49,0,0,1,8.63-10.28c.28,0,.56,0,.84,0a9.49,9.49,0,0,1,.81,18.95C271.85,507.28,271.57,507.3,271.29,507.3Z" />
                <path class="cls-1"
                    d="M315.07,500.38a9.54,9.54,0,0,1-10.8-6.89A9.49,9.49,0,0,1,311,481.86c.27-.07.55-.13.83-.18a9.49,9.49,0,0,1,4.09,18.52C315.62,500.27,315.34,500.33,315.07,500.38Z" />
                <path class="cls-1"
                    d="M357,486a9.54,9.54,0,0,1-11.83-4.92,9.49,9.49,0,0,1,4.59-12.61c.26-.12.52-.23.78-.32a9.49,9.49,0,0,1,7.24,17.53C357.5,485.76,357.24,485.87,357,486Z" />
                <path class="cls-1"
                    d="M395.75,464.49a9.54,9.54,0,0,1-12.51-2.79,9.49,9.49,0,0,1,2.33-13.22c.23-.16.47-.31.71-.45a9.49,9.49,0,0,1,10.17,16C396.23,464.2,396,464.35,395.75,464.49Z" />
                <path class="cls-1"
                    d="M430.2,436.61a9.54,9.54,0,0,1-12.8-.57,9.49,9.49,0,0,1,0-13.42c.2-.2.41-.39.62-.57a9.49,9.49,0,0,1,12.8,14C430.62,436.25,430.42,436.44,430.2,436.61Z" />
                <path class="cls-1"
                    d="M459.29,403.17a9.54,9.54,0,0,1-12.7,1.66,9.49,9.49,0,0,1-2.33-13.22c.16-.23.34-.46.51-.67a9.49,9.49,0,0,1,15,11.56C459.64,402.74,459.47,403,459.29,403.17Z" />
                <path class="cls-1"
                    d="M482.13,365.2A9.54,9.54,0,0,1,469.91,369a9.49,9.49,0,0,1-4.59-12.61c.12-.26.25-.51.39-.75a9.49,9.49,0,0,1,16.81,8.77C482.4,364.7,482.27,365,482.13,365.2Z" />
                <path class="cls-1"
                    d="M498,323.83a9.54,9.54,0,0,1-11.37,5.9,9.49,9.49,0,0,1-6.71-11.62c.08-.27.16-.54.26-.8A9.49,9.49,0,0,1,498.29,323C498.21,323.29,498.13,323.56,498,323.83Z" />
                <path class="cls-1"
                    d="M506.51,280.32a9.54,9.54,0,0,1-10.17,7.79,9.49,9.49,0,0,1-8.63-10.28c0-.28.06-.56.11-.84a9.49,9.49,0,0,1,18.8,2.49C506.59,279.77,506.55,280,506.51,280.32Z" />
                <path class="cls-1"
                    d="M507.3,236a9.54,9.54,0,0,1-8.67,9.44,9.49,9.49,0,0,1-10.28-8.63c0-.28,0-.56,0-.84a9.49,9.49,0,0,1,18.95-.81C507.28,235.45,507.3,235.73,507.3,236Z" />
                <path class="cls-1"
                    d="M500.38,192.23a9.54,9.54,0,0,1-6.89,10.8,9.49,9.49,0,0,1-11.63-6.71c-.07-.27-.13-.55-.18-.82a9.49,9.49,0,0,1,18.52-4.09C500.27,191.68,500.33,192,500.38,192.23Z" />
                <path class="cls-1"
                    d="M486,150.32a9.54,9.54,0,0,1-4.92,11.83,9.49,9.49,0,0,1-12.61-4.59c-.12-.26-.23-.52-.32-.78a9.49,9.49,0,0,1,17.53-7.24C485.76,149.8,485.87,150.06,486,150.32Z" />
                <path class="cls-1"
                    d="M464.49,111.55a9.54,9.54,0,0,1-2.79,12.51,9.49,9.49,0,0,1-13.22-2.33c-.16-.23-.31-.47-.45-.71a9.49,9.49,0,0,1,16-10.17Q464.28,111.18,464.49,111.55Z" />
                <path class="cls-1"
                    d="M436.61,77.09a9.54,9.54,0,0,1-.57,12.8,9.49,9.49,0,0,1-13.42,0c-.2-.2-.39-.41-.57-.62a9.49,9.49,0,0,1,14-12.8C436.24,76.67,436.44,76.88,436.61,77.09Z" />
                <path class="cls-1"
                    d="M403.18,48a9.54,9.54,0,0,1,1.66,12.7A9.49,9.49,0,0,1,391.62,63c-.23-.16-.45-.33-.67-.51a9.49,9.49,0,0,1,11.56-15C402.74,47.65,403,47.82,403.18,48Z" />
                <path class="cls-1"
                    d="M365.2,25.16A9.54,9.54,0,0,1,369,37.39,9.49,9.49,0,0,1,356.42,42c-.26-.12-.51-.25-.75-.39a9.49,9.49,0,0,1,8.77-16.81Q364.83,25,365.2,25.16Z" />
                <path class="cls-1"
                    d="M323.83,9.26a9.54,9.54,0,0,1,5.9,11.37,9.49,9.49,0,0,1-11.62,6.71c-.27-.07-.54-.16-.8-.25A9.49,9.49,0,0,1,323,9C323.29,9.08,323.56,9.17,323.83,9.26Z" />
                <path class="cls-1"
                    d="M280.32.79A9.54,9.54,0,0,1,288.11,11a9.49,9.49,0,0,1-10.28,8.63c-.28,0-.56-.06-.83-.11A9.49,9.49,0,0,1,279.49.68C279.77.71,280,.74,280.32.79Z" />
                <path class="cls-1"
                    d="M236,0a9.54,9.54,0,0,1,9.44,8.67,9.49,9.49,0,0,1-8.63,10.28c-.28,0-.56,0-.84,0A9.49,9.49,0,0,1,235.17,0C235.45,0,235.73,0,236,0Z" />
                <path class="cls-1"
                    d="M192.23,6.92a9.54,9.54,0,0,1,10.8,6.9,9.49,9.49,0,0,1-6.71,11.62c-.27.07-.55.13-.82.18A9.49,9.49,0,0,1,191.41,7.1C191.68,7,192,7,192.23,6.92Z" />
                <path class="cls-1"
                    d="M150.32,21.33a9.54,9.54,0,0,1,11.83,4.92,9.49,9.49,0,0,1-4.59,12.61c-.26.12-.52.23-.78.32a9.49,9.49,0,0,1-7.24-17.53C149.8,21.54,150.06,21.43,150.32,21.33Z" />
                <path class="cls-1"
                    d="M111.55,42.8a9.54,9.54,0,0,1,12.51,2.79,9.49,9.49,0,0,1-2.33,13.22c-.23.16-.47.31-.71.45a9.49,9.49,0,0,1-10.18-16C111.07,43.1,111.31,42.94,111.55,42.8Z" />
                <path class="cls-1"
                    d="M77.09,70.68a9.54,9.54,0,0,1,12.8.57,9.49,9.49,0,0,1,0,13.42c-.2.2-.41.39-.62.57a9.49,9.49,0,0,1-12.8-14C76.67,71.05,76.88,70.86,77.09,70.68Z" />
                <path class="cls-1"
                    d="M48,104.12a9.54,9.54,0,0,1,12.7-1.66A9.49,9.49,0,0,1,63,115.68c-.16.23-.33.45-.51.67a9.49,9.49,0,0,1-15-11.56C47.65,104.56,47.82,104.33,48,104.12Z" />
                <path class="cls-1"
                    d="M25.16,142.1a9.54,9.54,0,0,1,12.22-3.84A9.49,9.49,0,0,1,42,150.87c-.12.26-.25.51-.39.75a9.49,9.49,0,0,1-16.81-8.77C24.89,142.59,25,142.34,25.16,142.1Z" />
                <path class="cls-1"
                    d="M9.26,183.47a9.54,9.54,0,0,1,11.37-5.9,9.49,9.49,0,0,1,6.71,11.62c-.07.27-.16.54-.26.8A9.49,9.49,0,0,1,9,184.28C9.09,184,9.17,183.73,9.26,183.47Z" />
                <path class="cls-1"
                    d="M.79,227A9.54,9.54,0,0,1,11,219.19a9.49,9.49,0,0,1,8.63,10.28c0,.28-.06.56-.11.83a9.49,9.49,0,0,1-18.8-2.49C.71,227.53.74,227.25.79,227Z" />
                <path class="cls-1"
                    d="M0,271.29a9.54,9.54,0,0,1,8.67-9.44,9.49,9.49,0,0,1,10.28,8.63c0,.28,0,.56,0,.84A9.49,9.49,0,0,1,0,272.13C0,271.85,0,271.57,0,271.29Z" />
                <path class="cls-1"
                    d="M6.92,315.07a9.54,9.54,0,0,1,6.9-10.8A9.49,9.49,0,0,1,25.44,311c.07.27.13.55.18.82A9.49,9.49,0,0,1,7.1,315.89C7,315.62,7,315.34,6.92,315.07Z" />
                <path class="cls-1"
                    d="M21.33,357a9.54,9.54,0,0,1,4.92-11.83,9.49,9.49,0,0,1,12.61,4.59c.12.26.23.51.32.78a9.49,9.49,0,0,1-17.52,7.24C21.54,357.5,21.43,357.24,21.33,357Z" />
                <path class="cls-1"
                    d="M42.8,395.75a9.54,9.54,0,0,1,2.79-12.5,9.49,9.49,0,0,1,13.22,2.33c.16.23.31.47.45.71a9.49,9.49,0,0,1-16,10.18C43.1,396.23,42.94,396,42.8,395.75Z" />
                <path class="cls-1"
                    d="M70.68,430.21a9.55,9.55,0,0,1,.57-12.8,9.5,9.5,0,0,1,13.42,0c.2.2.39.41.57.62a9.49,9.49,0,0,1-14,12.8C71.05,430.63,70.86,430.42,70.68,430.21Z" />
                <path class="cls-1"
                    d="M104.12,459.29a9.54,9.54,0,0,1-1.66-12.7,9.49,9.49,0,0,1,13.22-2.33c.23.16.45.33.67.51a9.49,9.49,0,0,1-11.55,15C104.56,459.64,104.33,459.47,104.12,459.29Z" />
                <path class="cls-1"
                    d="M142.1,482.14a9.54,9.54,0,0,1-3.84-12.22,9.49,9.49,0,0,1,12.61-4.59q.38.18.74.39a9.49,9.49,0,0,1-8.77,16.81C142.59,482.4,142.34,482.27,142.1,482.14Z" />
                <path class="cls-1"
                    d="M183.47,498a9.54,9.54,0,0,1-5.9-11.37A9.49,9.49,0,0,1,189.19,480c.27.07.54.16.8.26a9.49,9.49,0,0,1-5.72,18.08C184,498.21,183.73,498.13,183.47,498Z" />
                <path class="cls-1"
                    d="M227,506.51a9.54,9.54,0,0,1-7.79-10.17,9.5,9.5,0,0,1,10.28-8.63c.28,0,.56.06.83.11a9.49,9.49,0,0,1-2.49,18.8C227.53,506.59,227.25,506.55,227,506.51Z" />
            </g>
        </g>
    </svg>