<svg xmlns="http://www.w3.org/2000/svg" viewBox="0 0 374.79 384.16">
        <defs>
            <style>
                .cls-1 {
                    fill: #955ce0;
                }
            </style>
        </defs>
        <title>Asset 4</title>
        <g id="Layer_2" data-name="Layer 2">
            <g id="Layer_1-2" data-name="Layer 1">
                <path class="cls-1"
                    d="M375.39,190.69c-.28,76.7-52.58,147.12-124.21,172.7C178.86,389.21,96,367.09,46.07,308.86a187.51,187.51,0,0,1-43.92-101C-2.12,169.36,9.46,129.2,30.1,96.73,71.29,31.92,150-1.66,225.28,13.47c73.93,14.85,133.23,75,147,149.15a172.6,172.6,0,0,1,3.1,30.73c0,.65.07,3.48.06,3.49.53-1.61,0-4.49,0-6.15-.14-38.92-10.37-76.53-32.39-108.89a188.57,188.57,0,0,0-89.41-70.24C178.19-16.62,90.9,8,41.08,71.24A187.78,187.78,0,0,0,1.17,178.78C-.53,217.26,6,255,25,288.85c39.46,70,121.48,107.54,200.25,91.72,77.79-15.62,138.78-81.24,148.68-160a224.69,224.69,0,0,0,1.52-27.26,43.45,43.45,0,0,0,0-6.15C375.48,187.42,375.39,189.92,375.39,190.69Z"
                    transform="translate(-0.91)" />
            </g>
        </g>
    </svg>