<svg xmlns="http://www.w3.org/2000/svg" viewBox="0 0 282.62 281.34">
        <defs>
            <style>
                .cls-1 {
                    fill: #fff;
                }
    
                .cls-2 {
                    fill: #f9f9f9;
                }
            </style>
        </defs>
        <title>Asset 2</title>
        <g id="Layer_2" data-name="Layer 2">
            <g id="Layer_1-2" data-name="Layer 1">
                <polygon class="cls-1" points="150.94 12.06 126.82 12.06 130.69 0 154.82 0 150.94 12.06" />
                <path class="cls-2"
                    d="M154.82,0h-.05a1,1,0,0,0-.54,1.84L154.82,0ZM128.61,8.76a1,1,0,0,0-1,.69l0,.06a1,1,0,0,0,1.9.61l0-.05a1,1,0,0,0-1-1.31Zm23.6-4.91a1,1,0,0,0-1,.69l0,.05a1,1,0,1,0,1.9.61l0-.05a1,1,0,0,0-1-1.31Z" />
                <polygon class="cls-1" points="123.99 12.87 100.39 17.89 101.68 5.28 125.27 0.27 123.99 12.87" />
                <path class="cls-2"
                    d="M125.27.27h-.05a1,1,0,0,0-.14,1.91l.2-1.93Zm-23.61,14a1,1,0,0,0-1,.9v.06a1,1,0,0,0,.89,1.09h.1a1,1,0,0,0,1-.9v-.05a1,1,0,0,0-.89-1.1Zm22.06-9.71a1,1,0,0,0-1,.9v.05a1,1,0,0,0,.89,1.1h.1a1,1,0,0,0,1-.9v0h0a1,1,0,0,0-.89-1.1Z" />
                <polygon class="cls-1" points="97.8 19.27 75.76 29.08 74.39 16.48 96.43 6.67 97.8 19.27" />
                <path class="cls-2"
                    d="M96.43,6.67h0l-.05,0a1,1,0,0,0,.26,1.9l-.21-1.93Zm-20,18.58h-.11a1,1,0,0,0-.89,1.1v.05a1,1,0,0,0,1,.89h.11a1,1,0,0,0,.89-1.1v-.05a1,1,0,0,0-1-.89ZM96,11.16h-.11a1,1,0,0,0-.89,1.1v.05a1,1,0,0,0,1,.89h.11a1,1,0,0,0,.89-1.1v-.05a1,1,0,0,0-1-.89Z" />
                <polygon class="cls-1" points="73.51 30.96 53.99 45.14 50.04 33.11 69.55 18.93 73.51 30.96" />
                <path class="cls-2"
                    d="M69.55,18.93h0l0,0a1,1,0,0,0,.59,1.81h.06l-.6-1.84ZM54.09,41.23a1,1,0,0,0-1,1.31v.06a1,1,0,0,0,1.9-.62l0-.05a1,1,0,0,0-.95-.69ZM70.29,23.39a1,1,0,0,0-1,1.31l0,.05a1,1,0,0,0,1.9-.62l0-.05a1,1,0,0,0-.95-.69Z" />
                <polygon class="cls-1" points="52.18 47.46 36.04 65.39 29.67 54.44 45.81 36.51 52.18 47.46" />
                <path class="cls-2"
                    d="M45.81,36.51h0l0,0a1,1,0,0,0,1,1.63l-1-1.67Zm-10.28,25a1,1,0,0,0-.86,1.5l0,.05a1,1,0,0,0,1.73-1l0,0a1,1,0,0,0-.87-.5ZM47.67,40.7a1,1,0,0,0-.86,1.5l0,0a1,1,0,0,0,1.73-1v-.05a1,1,0,0,0-.87-.5Z" />
                <polygon class="cls-1" points="34.75 68.03 22.68 88.92 14.18 79.53 26.24 58.64 34.75 68.03" />
                <path class="cls-2"
                    d="M26.24,58.64h0l0,0a1,1,0,0,0,1.33,1.39l-1.3-1.43ZM21.59,85.22a1,1,0,0,0-.74,1.67h0l0,0a1,1,0,0,0,1.48-1.34l0,0a1,1,0,0,0-.74-.33Zm7.55-22.89A1,1,0,0,0,28.4,64l0,0a1,1,0,1,0,1.48-1.34v0l0,0a1,1,0,0,0-.74-.33Z" />
                <polygon class="cls-1" points="21.97 91.77 14.52 114.72 4.25 107.3 11.7 84.36 21.97 91.77" />
                <path class="cls-2"
                    d="M11.7,84.36h0l0,.05a1,1,0,0,0,1.59,1.08L11.7,84.36Zm1.19,26.94a1,1,0,0,0-.59,1.81l0,0a1,1,0,0,0,1.17-1.62l0,0a1,1,0,0,0-.58-.19Zm2.63-24a1,1,0,0,0-.59,1.81l0,0a1,1,0,0,0,1.17-1.62l0,0a1,1,0,0,0-.58-.19Z" />
                <polygon class="cls-1" points="14.41 117.65 11.89 141.64 0.3 136.53 2.82 112.54 14.41 117.65" />
                <path class="cls-2"
                    d="M2.82,112.54h0v0a1,1,0,0,0,.89,1.1h.11a1,1,0,0,0,.78-.38l-1.77-.78Zm7,26.09a1,1,0,0,0-.4,1.92h0l0,0a1,1,0,0,0,.81-1.83l-.05,0a1,1,0,0,0-.4-.09Zm-2.41-24a1,1,0,0,0-.4,1.92l.05,0a1,1,0,0,0,.81-1.83l0,0h0a1,1,0,0,0-.4-.09Z" />
                <polygon class="cls-1" points="12.4 144.54 14.92 168.53 2.52 165.94 0 141.94 12.4 144.54" />
                <path class="cls-2"
                    d="M0,141.94V142a1,1,0,0,0,1,.9H1.1a1,1,0,0,0,.79-.55l-1.9-.4Zm12.45,24a1,1,0,0,0-.2,2h.06l.2,0a1,1,0,0,0,.2-2h-.05l-.21,0ZM5.1,143a1,1,0,0,0-.2,2h.05l.21,0a1,1,0,0,0,.21-2H5.3l-.21,0Z" />
                <polygon class="cls-1" points="16.02 171.26 23.48 194.2 10.81 194.24 3.35 171.3 16.02 171.26" />
                <path class="cls-2"
                    d="M16,171.26H16a1,1,0,0,0,0,2H16a1,1,0,0,0,.58-.19L16,171.26Zm-5.11,19.07a1,1,0,0,0-1,1.31l0,.06a1,1,0,0,0,1.9-.62l0-.05a1,1,0,0,0-1-.69Zm5.83-14.61a1,1,0,0,0-1,1.31l0,.05a1,1,0,0,0,1.9-.62v0h0a1,1,0,0,0-1-.69Z" />
                <polygon class="cls-1" points="25.12 196.64 37.18 217.53 24.8 220.2 12.73 199.31 25.12 196.64" />
                <path class="cls-2"
                    d="M25.12,196.64h-.05a1,1,0,0,0,.21,2l.21,0h.05a1,1,0,0,0,.53-.31l-1-1.65Zm-.83,19.69a1,1,0,0,0-.87,1.5l0,.05a1,1,0,0,0,1.73-1l0,0a1,1,0,0,0-.87-.5ZM27,200.83a1,1,0,0,0-.87,1.5l0,0a1,1,0,0,0,1.73-1l0-.05a1,1,0,0,0-.87-.5Z" />
                <polygon class="cls-1" points="39.3 219.57 55.44 237.5 43.88 242.69 27.74 224.76 39.3 219.57" />
                <path class="cls-2"
                    d="M39.29,219.57l-.05,0a1,1,0,1,0,.82,1.82l.05,0a1,1,0,0,0,.45-.41l-1.27-1.42ZM42.79,239a1,1,0,0,0-.74,1.67h0l0,0a1,1,0,0,0,1.48-1.34l0,0a1,1,0,0,0-.74-.33Zm-.61-15.72a1,1,0,0,0-.74,1.67l0,0A1,1,0,0,0,43,223.64l0,0h0a1,1,0,0,0-.74-.33Z" />
                <polygon class="cls-1" points="57.93 239.06 77.44 253.24 67.22 260.72 47.7 246.54 57.93 239.06" />
                <path class="cls-2"
                    d="M57.93,239.06l0,0a1,1,0,1,0,1.18,1.61l0,0a1,1,0,0,0,.36-.5l-1.54-1.12Zm7.66,18.24a1,1,0,0,0-.59,1.81l0,0h0a1,1,0,0,0,1.18-1.62l0,0a1,1,0,0,0-.59-.19Zm-3.87-15.25a1,1,0,0,0-.59,1.81l0,0a1,1,0,0,0,1.18-1.62h0l0,0a1,1,0,0,0-.59-.19Z" />
                <polygon class="cls-1" points="80.21 254.25 102.24 264.06 93.8 273.5 71.76 263.69 80.21 254.25" />
                <path class="cls-2"
                    d="M80.21,254.25l0,0a1,1,0,1,0,1.49,1.33l0,0a1,1,0,0,0,.25-.56l-1.74-.77Zm11.5,16.23a1,1,0,0,0-.41,1.91l.06,0a1,1,0,0,0,.81-1.83l-.05,0a1,1,0,0,0-.41-.09Zm-7-14.11a1,1,0,0,0-.41,1.91l.05,0a1,1,0,0,0,.81-1.83h-.05a1,1,0,0,0-.41-.09Z" />
                <polygon class="cls-1" points="105.16 264.47 128.75 269.48 122.45 280.48 98.86 275.46 105.16 264.47" />
                <path class="cls-2"
                    d="M105.16,264.47l0,0a1,1,0,1,0,1.74,1l0,0a1,1,0,0,0,.13-.6l-1.86-.4ZM120,277.93a1,1,0,0,0-.21,2h.06l.21,0a1,1,0,0,0,.21-2h-.05l-.21,0Zm-9.73-12.36a1,1,0,0,0-.21,2h.05l.21,0a1,1,0,0,0,.21-2h-.06l-.21,0Z" />
                <polygon class="cls-1" points="131.69 269.28 155.81 269.28 151.93 281.34 127.81 281.34 131.69 269.28" />
                <path class="cls-2"
                    d="M155.81,269.28h-.05a1,1,0,0,0-.54,1.84l.59-1.84ZM129.6,278a1,1,0,0,0-1,.69l0,.05a1,1,0,1,0,1.9.61l0-.05a1,1,0,0,0-1-1.31Zm23.6-4.91a1,1,0,0,0-1,.69l0,.05a1,1,0,1,0,1.9.61l0-.05a1,1,0,0,0-1-1.31Z" />
                <polygon class="cls-1" points="158.63 268.47 182.23 263.46 180.95 276.06 157.35 281.08 158.63 268.47" />
                <path class="cls-2"
                    d="M182.23,263.46h-.05a1,1,0,0,0-.14,1.91l.2-1.93Zm-23.61,14a1,1,0,0,0-1,.9v.05h0a1,1,0,0,0,.89,1.1h.1a1,1,0,0,0,1-.9v-.05a1,1,0,0,0-.89-1.1Zm22.06-9.71a1,1,0,0,0-1,.9v.05a1,1,0,0,0,.89,1.1h.1a1,1,0,0,0,1-.9v-.06a1,1,0,0,0-.89-1.1Z" />
                <polygon class="cls-1" points="184.83 262.08 206.87 252.27 208.23 264.86 186.19 274.67 184.83 262.08" />
                <path class="cls-2"
                    d="M206.86,252.27h0l-.05,0a1,1,0,0,0,.26,1.9l-.21-1.93Zm-20,18.58h-.11a1,1,0,0,0-.89,1.1V272a1,1,0,0,0,1,.89H187a1,1,0,0,0,.89-1.1v-.05a1,1,0,0,0-1-.89Zm19.56-14.08h-.11a1,1,0,0,0-.89,1.1v.05a1,1,0,0,0,1,.89h.11a1,1,0,0,0,.89-1.1h0v-.05a1,1,0,0,0-1-.89Z" />
                <polygon class="cls-1" points="209.12 250.38 228.63 236.2 232.59 248.24 213.07 262.41 209.12 250.38" />
                <path class="cls-2"
                    d="M228.63,236.2h0l0,0a1,1,0,0,0,.59,1.81h.06l-.6-1.84Zm-15.47,22.3a1,1,0,0,0-1,1.31l0,.05a1,1,0,1,0,1.9-.62l0-.05a1,1,0,0,0-.95-.69Zm16.21-17.84a1,1,0,0,0-1,1.31l0,.05a1,1,0,0,0,1.9-.62l0-.06a1,1,0,0,0-.95-.69Z" />
                <polygon class="cls-1" points="230.52 234.13 246.27 215.85 252.88 226.66 237.13 244.94 230.52 234.13" />
                <path class="cls-2"
                    d="M246.27,215.85h0l0,0a1,1,0,0,0,1,1.61l-1-1.65Zm-9.72,25.23a1,1,0,0,0-.85,1.52h0l0,0a1,1,0,0,0,1.71-1l0,0a1,1,0,0,0-.85-.48ZM248.24,220a1,1,0,0,0-.85,1.52l0,0a1,1,0,1,0,1.71-1v0h0l0,0a1,1,0,0,0-.85-.48Z" />
                <polygon class="cls-1" points="247.88 213.31 259.94 192.42 268.45 201.81 256.38 222.7 247.88 213.31" />
                <path class="cls-2"
                    d="M259.94,192.42h0l0,0a1,1,0,0,0,1.33,1.39l-1.3-1.43ZM255.29,219a1,1,0,0,0-.74,1.67h0l0,0a1,1,0,0,0,1.48-1.34l0,0a1,1,0,0,0-.74-.33Zm7.55-22.89a1,1,0,0,0-.74,1.67l0,0a1,1,0,1,0,1.48-1.34l0,0h0a1,1,0,0,0-.74-.33Z" />
                <polygon class="cls-1" points="260.65 189.57 268.11 166.63 278.38 174.04 270.93 196.98 260.65 189.57" />
                <path class="cls-2"
                    d="M268.11,166.63h0l0,.05a1,1,0,0,0,1.59,1.08l-1.57-1.13Zm1.19,26.94a1,1,0,0,0-.59,1.81l0,0a1,1,0,0,0,1.17-1.62l0,0a1,1,0,0,0-.58-.19Zm2.63-24a1,1,0,0,0-.59,1.81l0,0a1,1,0,0,0,1.17-1.62l0,0a1,1,0,0,0-.58-.19Z" />
                <polygon class="cls-1" points="268.21 163.69 270.73 139.7 282.32 144.81 279.8 168.81 268.21 163.69" />
                <path class="cls-2"
                    d="M270.73,139.7h0v0a1,1,0,0,0,.89,1.1h.11a1,1,0,0,0,.78-.38l-1.77-.78Zm7,26.09a1,1,0,0,0-.4,1.92l.05,0a1,1,0,0,0,.81-1.83l-.05,0a1,1,0,0,0-.4-.09Zm-2.41-24a1,1,0,0,0-.4,1.92l.05,0a1,1,0,1,0,.81-1.83h-.05a1,1,0,0,0-.4-.08Z" />
                <polygon class="cls-1" points="270.22 136.8 267.7 112.81 280.1 115.41 282.62 139.4 270.22 136.8" />
                <path class="cls-2"
                    d="M267.7,112.81v.05a1,1,0,0,0,1,.9h.11a1,1,0,0,0,.79-.55l-1.9-.4Zm12.45,24a1,1,0,0,0-.2,2H280l.2,0a1,1,0,0,0,.2-2h-.05l-.21,0Zm-7.35-23a1,1,0,0,0-.2,2h.05l.21,0a1,1,0,0,0,.21-2H273l-.21,0Z" />
                <polygon class="cls-1" points="266.6 110.08 259.15 87.14 271.82 87.1 279.27 110.05 266.6 110.08" />
                <path class="cls-2"
                    d="M271.82,87.1h-.06a1,1,0,0,0,0,2h.06a1,1,0,0,0,.58-.19l-.59-1.81Zm-5.11,19.07a1,1,0,0,0-1,1.31l0,.06a1,1,0,0,0,1.9-.62l0-.05a1,1,0,0,0-1-.69Zm5.83-14.61a1,1,0,0,0-1,1.31l0,.05a1,1,0,0,0,1.9-.62l0-.05a1,1,0,0,0-1-.69Z" />
                <polygon class="cls-1" points="257.5 84.7 245.44 63.81 257.83 61.14 269.89 82.03 257.5 84.7" />
                <path class="cls-2"
                    d="M257.83,61.14h-.05a1,1,0,0,0,.21,2l.21,0h.05a1,1,0,0,0,.53-.31l-1-1.65ZM257,80.83a1,1,0,0,0-.87,1.5l0,.05a1,1,0,0,0,1.73-1l0,0a1,1,0,0,0-.87-.5Zm2.67-15.5a1,1,0,0,0-.87,1.5l0,0a1,1,0,0,0,1.73-1h0l0,0a1,1,0,0,0-.87-.5Z" />
                <polygon class="cls-1" points="243.33 61.77 227.19 43.84 238.75 38.65 254.89 56.58 243.33 61.77" />
                <path class="cls-2"
                    d="M238.75,38.65l-.05,0a1,1,0,1,0,.82,1.82l.05,0a1,1,0,0,0,.45-.41l-1.27-1.42Zm3.5,19.41a1,1,0,0,0-.74,1.67l0,0,0,0A1,1,0,0,0,243,58.44l0,0a1,1,0,0,0-.74-.33Zm-.61-15.72a1,1,0,0,0-.74,1.67l0,0a1,1,0,0,0,1.49-1.34l0,0a1,1,0,0,0-.74-.33Z" />
                <polygon class="cls-1" points="224.69 42.28 205.18 28.1 215.41 20.62 234.92 34.8 224.69 42.28" />
                <path class="cls-2"
                    d="M215.41,20.62l0,0a1,1,0,1,0,1.18,1.61l0,0a1,1,0,0,0,.36-.5l-1.54-1.12Zm7.66,18.24a1,1,0,0,0-.59,1.81h0l0,0a1,1,0,1,0,1.18-1.62l0,0a1,1,0,0,0-.59-.19ZM219.2,23.62a1,1,0,0,0-.59,1.81l0,0a1,1,0,1,0,1.18-1.62l0,0a1,1,0,0,0-.59-.19Z" />
                <polygon class="cls-1" points="202.42 27.1 180.38 17.28 188.83 7.84 210.87 17.65 202.42 27.1" />
                <path class="cls-2"
                    d="M188.83,7.84l0,0a1,1,0,0,0,1.49,1.33l0,0a1,1,0,0,0,.25-.56l-1.74-.77Zm11.5,16.23a1,1,0,0,0-.41,1.91l.05,0a1,1,0,0,0,.81-1.83l-.05,0a1,1,0,0,0-.41-.09Zm-7-14.11a1,1,0,0,0-.41,1.91l.05,0a1,1,0,0,0,.81-1.83l-.05,0a1,1,0,0,0-.41-.09Z" />
                <polygon class="cls-1" points="177.47 16.87 153.87 11.86 160.17 0.87 183.77 5.88 177.47 16.87" />
                <path class="cls-2"
                    d="M160.17.87l0,0a1,1,0,1,0,1.74,1l0,0a1,1,0,0,0,.13-.6l-1.86-.4ZM175,14.33a1,1,0,0,0-.21,2h.06l.21,0a1,1,0,0,0,.21-2h-.05l-.21,0ZM165.26,2a1,1,0,0,0-.21,2h.05l.21,0a1,1,0,0,0,.21-2h-.06l-.21,0Z" />
            </g>
        </g>
    </svg>