<svg xmlns="http://www.w3.org/2000/svg" viewBox="0 0 217 217">
        <defs>
            <style>
                .cls-1 {
                    fill: #f9f9f9;
                }
            </style>
        </defs>
        <title>Asset 6</title>
        <g id="Layer_2" data-name="Layer 2">
            <g id="Layer_1-2" data-name="Layer 1">
                <path class="cls-1"
                    d="M108.5,0h-.06a1,1,0,0,0,0,2h.05a1,1,0,0,1,.64,0h.06a1,1,0,0,0,0-2h-.06a1,1,0,0,1-.65,0ZM75.3,5.22a1,1,0,0,0-.31,0h-.06a1,1,0,0,0,.62,1.9l.05,0a1,1,0,0,0-.31-2ZM45.37,20.48a1,1,0,0,0-.58.19l0,0h0a1,1,0,0,0,1.18,1.62l0,0a1,1,0,0,0-.59-1.81ZM21.59,44.23a1,1,0,0,0-.81.41h0l0,0a1,1,0,0,0,1.62,1.17l0,0a1,1,0,0,0-.81-1.59ZM6.28,74.14a1,1,0,0,0-1,.69l0,.06a1,1,0,0,0,1.9.61l0-.05a1,1,0,0,0-1-1.31ZM1,107.32a1,1,0,0,0-1,1v0H0a1,1,0,0,0,1,1H1a1,1,0,0,0,1-1v-.05a1,1,0,0,0-1-1Zm5.17,33.2a1,1,0,0,0-1,1.31l0,.05h0a1,1,0,0,0,1.9-.62l0-.05a1,1,0,0,0-1-.69Zm15.21,30a1,1,0,0,0-.81,1.58v0l0,0a1,1,0,0,0,1.62-1.17l0,0a1,1,0,0,0-.81-.41Zm23.71,23.82a1,1,0,0,0-.59,1.8l0,0h0a1,1,0,0,0,1.18-1.62l0,0a1,1,0,0,0-.59-.19ZM75,209.67a1,1,0,0,0-.32,1.95l.06,0a1,1,0,0,0,.62-1.9l-.05,0a1,1,0,0,0-.31-.05ZM108.15,215a1,1,0,0,0,0,2h.06a1,1,0,0,0,0-2h-.06Zm33.27-5.13a1,1,0,0,0-.31,0l-.05,0a1,1,0,0,0,.61,1.91h.06a1,1,0,0,0-.31-2Zm30-15.18a1,1,0,0,0-.58.19l0,0a1,1,0,1,0,1.17,1.62l0,0h0a1,1,0,0,0-.59-1.81ZM195.24,171a1,1,0,0,0-.81.41l0,0a1,1,0,1,0,1.61,1.18h0l0,0a1,1,0,0,0-.81-1.59Zm15.39-29.87a1,1,0,0,0-.95.69l0,.05a1,1,0,1,0,1.9.63h0v0a1,1,0,0,0-1-1.31ZM216,108a1,1,0,0,0-1,1V109a1,1,0,0,0,1,1h0a1,1,0,0,0,1-1V109a1,1,0,0,0-1-1Zm-5.08-33.22a1,1,0,0,0-1,1.3l0,.05a1,1,0,1,0,1.91-.61v-.06a1,1,0,0,0-1-.69Zm-15.13-30a1,1,0,0,0-.81,1.58l0,0a1,1,0,0,0,1.63-1.16l0,0a1,1,0,0,0-.81-.41ZM172.15,20.86a1,1,0,0,0-.59,1.81l0,0a1,1,0,0,0,1.19-1.61l0,0h0a1,1,0,0,0-.59-.19ZM142.31,5.42A1,1,0,0,0,142,7.37l.05,0a1,1,0,0,0,.64-1.9l-.06,0a1,1,0,0,0-.31,0Z" />
            </g>
        </g>
    </svg>